<?xml version="1.0" encoding="UTF-8" standalone="no"?>
<!DOCTYPE svg PUBLIC "-//W3C//DTD SVG 20010904//EN"
"http://www.w3.org/TR/2001/REC-SVG-20010904/DTD/svg10.dtd"
[
 <!ATTLIST svg
  xmlns:xlink CDATA #FIXED "http://www.w3.org/1999/xlink">
]>
<!-- Created with Sodipodi ("http://www.sodipodi.com/") -->
<svg
   xmlns="http://www.w3.org/2000/svg"
   xmlns:xlink="http://www.w3.org/1999/xlink"
   version="1"
   x="0.00000000"
   y="0.00000000"
   width="60.0000000"
   height="60.0000000"
   viewBox="0 0 128 128"
   id="svg548">
  <defs
     id="defs763" />
  <g
     style="font-size:12;stroke:#000000;"
     id="Layer_2">
    <path
       d="M 128 128 L 0 128 L 0 0 L 128 0 L 128 128 z "
       style="fill:none;stroke:none;"
       id="path550" />
  </g>
  <g
     style="font-size:12;stroke:#000000;"
     id="Layer_1">
    <linearGradient
       x1="-0.15770000"
       y1="-19.3423004"
       x2="65.0932999"
       y2="45.9086990"
       id="XMLID_1_"
       gradientUnits="userSpaceOnUse"
       spreadMethod="pad">
      <stop
         style="stop-color:#000000;stop-opacity:1;"
         offset="0.00000000"
         id="stop553" />
      <stop
         style="stop-color:#616161;stop-opacity:1;"
         offset="1.00000000"
         id="stop554" />
      <a:midPointStop
         offset="0"
         style="stop-color:#000000"
         id="midPointStop555" />
      <a:midPointStop
         offset="0.5"
         style="stop-color:#000000"
         id="midPointStop556" />
      <a:midPointStop
         offset="1"
         style="stop-color:#616161"
         id="midPointStop557" />
    </linearGradient>
    <path
       d="M 26.437 23.054 C 25.987 23.566 25.746 24.231 25.746 24.947 C 25.746 25.023 25.748 25.099 25.754 25.176 C 25.78 25.598 25.932 26.002 26.147 26.379 C 26.122 26.585 26.009 27.254 25.339 28.547 C 25.338 28.548 24.922 29.303 24.922 29.303 C 23.969 30.949 22.472 32.96 20.505 35.242 C 19.103 36.402 16.395 38.048 14.755 37.738 C 13.854 37.565 12.912 37.841 12.24 38.476 L 4.5 45.8 C 3.614 46.636 3.352 47.948 3.849 49.063 C 4.492 50.512 10.397 63.311 19.103 65.277 C 23.841 66.346 26.998 61.408 30.339 56.18 C 32.991 52.028 36.285 46.871 39.476 46.576 C 41.059 46.429 42.929 47.494 45.037 49.742 C 45.037 49.742 45.017 49.692 45.016 49.688 C 45.211 49.928 45.457 50.211 45.832 50.629 L 50.34 55.718 L 50.508 50.701 C 50.679 45.567 55.373 43.037 60.342 40.359 L 61.511 39.726 L 61.558 39.696 C 63.346 38.579 65.388 38.378 68.18 39.043 L 74.533 40.558 L 70.118 35.746 C 68.604 34.096 66.654 31.304 66.139 28.865 C 65.905 27.749 65.977 26.824 66.361 26.038 C 67.459 23.791 73.156 18.907 102.264 22.098 C 103.58 22.243 104.821 21.476 105.277 20.233 C 105.399 19.908 105.459 19.571 105.459 19.237 C 105.459 18.319 105.015 17.425 104.221 16.872 C 104.221 16.872 98.725 13.062 98.417 12.849 C 98.427 12.72 98.434 12.62 98.434 12.62 L 97.359 10.923 C 97.356 10.921 93.85 8.26 93.85 8.26 C 93.85 8.26 94.261 8.723 94.308 8.775 C 94.265 8.732 93.396 7.849 93.396 7.849 C 93.396 7.849 93.218 7.754 93.085 7.683 C 92.936 7.57 92.717 7.404 92.717 7.404 C 92.721 7.406 91.795 7.078 91.332 6.914 C 91.527 6.96 91.722 7.007 91.722 7.007 C 85.669 4.166 54.073 -8.41 26.437 23.054 z M 26.45 26.855 C 26.45 26.855 26.384 26.727 26.32 26.601 C 26.459 26.799 26.579 27.01 26.766 27.171 L 26.45 26.855 z "
       style="fill:url(#XMLID_1_);stroke:none;"
       id="path558" />
    <linearGradient
       x1="28.3183994"
       y1="9.14159966"
       x2="60.8614006"
       y2="41.6846008"
       id="XMLID_2_"
       gradientUnits="userSpaceOnUse"
       spreadMethod="pad">
      <stop
         style="stop-color:#000000;stop-opacity:1;"
         offset="0.00000000"
         id="stop560" />
      <stop
         style="stop-color:#616161;stop-opacity:1;"
         offset="1.00000000"
         id="stop561" />
      <a:midPointStop
         offset="0"
         style="stop-color:#000000"
         id="midPointStop562" />
      <a:midPointStop
         offset="0.5"
         style="stop-color:#000000"
         id="midPointStop563" />
      <a:midPointStop
         offset="1"
         style="stop-color:#616161"
         id="midPointStop564" />
    </linearGradient>
    <path
       d="M 60.5 38 C 63.095 36.378 65.901 36.443 68.646 37.098 C 67.941 36.329 64.947 32.891 64.184 29.279 C 63.891 27.883 63.93 26.463 64.565 25.161 C 66.513 21.175 74.672 17.061 102.483 20.11 C 102.881 20.154 103.262 19.921 103.401 19.544 C 103.543 19.167 103.41 18.744 103.078 18.514 L 97.115 14.381 C 96.989 14.293 96.84 14.24 96.685 14.227 C 96.512 14.213 79.282 12.867 65.802 16.798 C 65.539 16.676 65.241 16.489 65.198 16.299 C 65.198 16.298 65.198 16.297 65.198 16.297 C 65.165 16.142 65.346 15.787 65.787 15.33 C 67.881 14.999 81.463 12.99 95.548 14.093 C 95.936 14.124 96.302 13.893 96.44 13.529 C 96.501 13.368 96.512 13.196 96.478 13.035 C 96.435 12.832 96.322 12.647 96.149 12.516 C 96.149 12.516 93.057 10.172 92.636 9.851 C 92.568 9.775 92.551 9.666 92.457 9.616 C 92.457 9.616 92.111 9.431 92.003 9.373 C 91.917 9.306 91.512 9 91.512 9 C 91.367 8.89 91.193 8.828 91.012 8.822 C 91.012 8.822 90.941 8.819 90.872 8.817 C 84.682 5.912 54.539 -5.908 27.939 24.374 C 27.784 24.55 27.732 24.801 27.749 25.035 C 27.764 25.269 27.898 25.507 28.075 25.66 L 28.007 25.6 C 28.046 25.648 28.086 25.736 28.114 25.867 C 28.218 26.364 28.137 27.491 27.114 29.468 C 27.103 29.489 26.674 30.269 26.674 30.269 C 25.613 32.102 24.004 34.264 21.899 36.694 C 21.582 36.962 17.548 40.302 14.384 39.705 C 14.107 39.652 13.821 39.735 13.616 39.93 L 5.875 47.254 C 5.604 47.51 5.524 47.909 5.676 48.249 C 5.917 48.791 11.656 61.546 19.545 63.327 C 22.916 64.088 25.578 59.92 28.661 55.096 C 31.692 50.35 35.128 44.971 39.293 44.586 C 41.552 44.376 43.909 45.616 46.497 48.375 C 46.497 48.376 47.321 49.294 47.321 49.294 L 48.51 50.636 C 48.735 43.896 55.098 40.946 60.5 38 M 65.537 16.864 C 65.514 16.871 65.486 16.875 65.463 16.883 C 65.486 16.875 65.514 16.871 65.537 16.864 z "
       style="fill:url(#XMLID_2_);stroke:none;"
       id="path565" />
    <path
       d="M 59.44 36.304 L 59.543 36.244 L 58.446 36.838 C 53.24 39.644 46.76 43.136 46.512 50.567 L 46.486 51.363 L 50.104 55.447 C 50.068 55.405 50.449 55.78 50.449 55.78 C 50.652 55.947 71.84 73.581 81.585 96.709 L 81.608 96.766 L 81.635 96.822 C 82.045 97.648 91.758 117.138 98.836 123.587 L 98.84 123.583 C 98.853 123.601 98.962 123.756 98.962 123.756 L 99.033 123.838 C 100.169 125.126 101.81 125.873 103.783 125.997 C 107.65 126.241 112.544 124.108 116.874 120.291 C 121.21 116.469 123.943 111.885 124.187 108.028 C 124.199 107.845 124.205 107.664 124.205 107.485 C 124.205 106.938 124.15 106.407 124.043 105.902 C 123.811 104.798 123.335 103.831 122.628 103.035 L 122.564 102.962 C 122.564 102.962 122.382 102.794 122.268 102.689 C 118.429 96.968 101.478 78.184 93.729 71.487 C 93.423 71.022 70.576 36.295 70.576 36.295 C 70.569 36.285 70.267 35.904 70.267 35.904 C 70.234 35.869 69.704 35.301 69.704 35.301 L 69.111 35.155 C 65.297 34.243 62.134 34.62 59.44 36.304 z M 101.501 120.604 C 101.501 120.604 101.569 120.696 101.605 120.744 C 101.575 120.765 101.2 121.027 100.997 121.169 C 101.151 120.995 101.501 120.604 101.501 120.604 z "
       style="fill:#663333;stroke:none;"
       id="path566" />
    <path
       d="M 122.086 106.318 C 121.927 105.56 121.607 104.898 121.131 104.361 C 121.131 104.361 120.902 104.145 120.753 104.01 C 117.245 98.619 99.805 79.298 92.202 72.804 C 92.076 72.609 68.903 37.391 68.903 37.391 C 68.872 37.344 68.836 37.3 68.799 37.26 C 68.793 37.255 68.736 37.194 68.646 37.096 C 65.902 36.442 63.096 36.376 60.5 37.998 C 55.098 40.944 48.735 43.894 48.51 50.632 L 51.599 54.119 C 51.632 54.158 51.669 54.194 51.708 54.225 C 51.924 54.403 73.432 72.211 83.425 95.93 C 83.855 96.796 93.462 115.984 100.181 122.105 C 100.133 122.063 100.081 121.873 100.044 121.819 L 100.532 122.512 C 103.178 125.515 109.774 123.878 115.55 118.787 C 119.437 115.36 121.982 111.19 122.19 107.898 C 122.227 107.339 122.19 106.81 122.086 106.318 z "
       style="fill:#663333;stroke:none;"
       id="path567" />
    <path
       d="M 120.471 104.943 C 120.353 104.809 120.219 104.693 120.08 104.583 C 116.716 99.33 99.14 79.845 91.533 73.384 L 68.168 37.875 C 68.168 37.875 43.704 12.782 102.577 19.236 L 96.613 15.102 C 96.613 15.102 79.238 13.674 65.716 17.725 C 65.716 17.725 62.832 16.835 65.338 14.51 C 65.338 14.51 80.083 11.998 95.616 13.215 L 91.86 10.368 C 91.917 10.371 91.966 10.374 92.022 10.379 C 92.022 10.379 91.849 10.28 91.528 10.115 L 90.98 9.699 L 90.667 9.689 C 84.102 6.567 54.796 -4.871 28.6 24.954 C 28.6 24.954 29.929 25.943 27.895 29.871 C 27.892 29.879 27.887 29.886 27.884 29.893 C 27.749 30.152 27.6 30.424 27.435 30.708 L 27.436 30.708 C 26.454 32.403 24.912 34.565 22.521 37.318 C 22.521 37.318 17.964 41.274 14.22 40.567 L 6.479 47.891 C 6.479 47.891 12.19 60.764 19.738 62.467 C 27.138 64.137 33.032 32.729 47.138 47.772 C 47.419 48.071 47.702 48.383 47.99 48.721 L 48.06 48.661 L 52.265 53.547 C 52.265 53.547 74.039 71.382 84.236 95.59 C 84.236 95.59 94.1 115.377 100.773 121.457 C 100.773 121.457 100.79 121.431 100.813 121.392 C 100.92 121.584 101.046 121.766 101.194 121.934 C 103.478 124.526 109.646 122.823 114.969 118.13 C 120.293 113.44 122.758 107.534 120.471 104.943 z "
       style="stroke:none;"
       id="path568" />
    <linearGradient
       x1="115.529297"
       y1="22.0459003"
       x2="75.6348038"
       y2="22.0464993"
       id="XMLID_3_"
       gradientUnits="userSpaceOnUse"
       gradientTransform="matrix(0.978500,-0.206400,0.206400,0.978500,-16.65350,15.00030)"
       spreadMethod="pad">
      <stop
         style="stop-color:#828282;stop-opacity:1;"
         offset="0.00000000"
         id="stop570" />
      <stop
         style="stop-color:#616161;stop-opacity:1;"
         offset="1.00000000"
         id="stop571" />
      <a:midPointStop
         offset="0"
         style="stop-color:#828282"
         id="midPointStop572" />
      <a:midPointStop
         offset="0.5"
         style="stop-color:#828282"
         id="midPointStop573" />
      <a:midPointStop
         offset="1"
         style="stop-color:#616161"
         id="midPointStop574" />
    </linearGradient>
    <path
       d="M 102.304 19.181 C 102.304 19.181 87.78 5.171 64.659 14.316 L 61.769 20.317 L 63.313 21.788 L 71.504 17.477 L 75.697 16.592 L 81.216 16.664 C 81.216 16.664 85.224 16.492 85.593 16.639 C 85.959 16.786 91.502 16.965 91.502 16.965 L 94.716 17.298 C 94.716 17.298 96.036 17.694 96.404 17.84 C 96.772 17.987 98.306 18.338 98.306 18.338 L 100.401 18.682 L 102.304 19.181 z "
       style="fill:url(#XMLID_3_);stroke:none;"
       id="path575" />
    <linearGradient
       x1="95.9082031"
       y1="22.0863991"
       x2="96.7874985"
       y2="14.1722002"
       id="XMLID_4_"
       gradientUnits="userSpaceOnUse"
       gradientTransform="matrix(0.978500,-0.206400,0.206400,0.978500,-16.65350,15.00030)"
       spreadMethod="pad">
      <stop
         style="stop-color:#919697;stop-opacity:1;"
         offset="0.00000000"
         id="stop577" />
      <stop
         style="stop-color:#8c9192;stop-opacity:1;"
         offset="0.14410000"
         id="stop578" />
      <stop
         style="stop-color:#7f8384;stop-opacity:1;"
         offset="0.31000000"
         id="stop579" />
      <stop
         style="stop-color:#696c6d;stop-opacity:1;"
         offset="0.48670000"
         id="stop580" />
      <stop
         style="stop-color:#4a4c4d;stop-opacity:1;"
         offset="0.67089999"
         id="stop581" />
      <stop
         style="stop-color:#222424;stop-opacity:1;"
         offset="0.85900003"
         id="stop582" />
      <stop
         style="stop-color:#000000;stop-opacity:1;"
         offset="1.00000000"
         id="stop583" />
      <a:midPointStop
         offset="0"
         style="stop-color:#919697"
         id="midPointStop584" />
      <a:midPointStop
         offset="0.678"
         style="stop-color:#919697"
         id="midPointStop585" />
      <a:midPointStop
         offset="1"
         style="stop-color:#000000"
         id="midPointStop586" />
    </linearGradient>
    <path
       d="M 102.304 19.181 C 102.304 19.181 87.78 5.171 64.659 14.316 L 61.769 20.317 L 63.313 21.788 L 71.504 17.477 L 75.697 16.592 L 81.216 16.664 C 81.216 16.664 85.224 16.492 85.593 16.639 C 85.959 16.786 91.502 16.965 91.502 16.965 L 94.716 17.298 C 94.716 17.298 96.036 17.694 96.404 17.84 C 96.772 17.987 98.306 18.338 98.306 18.338 L 100.401 18.682 L 102.304 19.181 z "
       style="fill:url(#XMLID_4_);stroke:none;"
       id="path587" />
    <linearGradient
       x1="86.1865005"
       y1="25.2343998"
       x2="20.8314991"
       y2="25.2334003"
       id="XMLID_5_"
       gradientUnits="userSpaceOnUse"
       gradientTransform="matrix(0.978500,-0.206400,0.206400,0.978500,-16.65350,15.00030)"
       spreadMethod="pad">
      <stop
         style="stop-color:#ffffff;stop-opacity:1;"
         offset="0.00000000"
         id="stop589" />
      <stop
         style="stop-color:#000000;stop-opacity:1;"
         offset="1.00000000"
         id="stop590" />
      <a:midPointStop
         offset="0"
         style="stop-color:#FFFFFF"
         id="midPointStop591" />
      <a:midPointStop
         offset="0.5"
         style="stop-color:#FFFFFF"
         id="midPointStop592" />
      <a:midPointStop
         offset="1"
         style="stop-color:#000000"
         id="midPointStop593" />
    </linearGradient>
    <path
       d="M 59.879 31.237 L 68.168 37.875 C 68.168 37.875 43.704 12.782 102.577 19.236 L 96.613 15.102 C 96.613 15.102 79.238 13.674 65.716 17.725 C 65.716 17.725 62.832 16.835 65.338 14.51 C 65.338 14.51 80.083 11.998 95.616 13.215 L 90.98 9.699 L 64.128 8.774 L 52.174 14.59 L 51.332 21.957 L 55.546 29.155 L 59.879 31.237 z "
       style="fill:url(#XMLID_5_);stroke:none;"
       id="path594" />
    <linearGradient
       x1="129.355499"
       y1="24.3202991"
       x2="13.1276999"
       y2="26.4433994"
       id="XMLID_6_"
       gradientUnits="userSpaceOnUse"
       gradientTransform="matrix(0.978500,-0.206400,0.206400,0.978500,-16.65350,15.00030)"
       spreadMethod="pad">
      <stop
         style="stop-color:#ffffff;stop-opacity:1;"
         offset="0.00000000"
         id="stop596" />
      <stop
         style="stop-color:#000000;stop-opacity:1;"
         offset="1.00000000"
         id="stop597" />
      <a:midPointStop
         offset="0"
         style="stop-color:#FFFFFF"
         id="midPointStop598" />
      <a:midPointStop
         offset="0.5"
         style="stop-color:#FFFFFF"
         id="midPointStop599" />
      <a:midPointStop
         offset="1"
         style="stop-color:#000000"
         id="midPointStop600" />
    </linearGradient>
    <path
       d="M 59.879 31.237 L 68.168 37.875 C 68.168 37.875 43.704 12.782 102.577 19.236 L 96.613 15.102 C 96.613 15.102 79.238 13.674 65.716 17.725 C 65.716 17.725 62.832 16.835 65.338 14.51 C 65.338 14.51 80.083 11.998 95.616 13.215 L 90.98 9.699 L 64.128 8.774 L 52.174 14.59 L 51.332 21.957 L 55.546 29.155 L 59.879 31.237 z "
       style="fill:url(#XMLID_6_);stroke:none;"
       id="path601" />
    <linearGradient
       x1="15.8457003"
       y1="37.5663986"
       x2="63.0278015"
       y2="37.5663986"
       id="XMLID_7_"
       gradientUnits="userSpaceOnUse"
       gradientTransform="matrix(0.978500,-0.206400,0.206400,0.978500,-16.65350,15.00030)"
       spreadMethod="pad">
      <stop
         style="stop-color:#ffffff;stop-opacity:1;"
         offset="0.00000000"
         id="stop603" />
      <stop
         style="stop-color:#cccccc;stop-opacity:1;"
         offset="0.25839999"
         id="stop604" />
      <stop
         style="stop-color:#616161;stop-opacity:1;"
         offset="1.00000000"
         id="stop605" />
      <a:midPointStop
         offset="0"
         style="stop-color:#FFFFFF"
         id="midPointStop606" />
      <a:midPointStop
         offset="0.5"
         style="stop-color:#FFFFFF"
         id="midPointStop607" />
      <a:midPointStop
         offset="0.2584"
         style="stop-color:#CCCCCC"
         id="midPointStop608" />
      <a:midPointStop
         offset="0.5"
         style="stop-color:#CCCCCC"
         id="midPointStop609" />
      <a:midPointStop
         offset="1"
         style="stop-color:#616161"
         id="midPointStop610" />
    </linearGradient>
    <path
       d="M 28.956 27.023 C 28.645 28.788 27.206 31.925 22.521 37.319 C 22.521 37.319 17.964 41.275 14.22 40.568 L 6.479 47.892 C 6.479 47.892 12.19 60.765 19.738 62.468 C 27.285 64.171 33.266 31.459 47.989 48.721 L 53.67 43.008 C 48.75 34.402 39.821 28.385 28.956 27.023 z "
       style="fill:url(#XMLID_7_);stroke:none;"
       id="path611" />
    <linearGradient
       x1="43.6884995"
       y1="38.2764015"
       x2="62.5326996"
       y2="38.2764015"
       id="XMLID_8_"
       gradientUnits="userSpaceOnUse"
       gradientTransform="matrix(0.978500,-0.206400,0.206400,0.978500,-16.65350,15.00030)"
       spreadMethod="pad">
      <stop
         style="stop-color:#b2b2b2;stop-opacity:1;"
         offset="0.00000000"
         id="stop613" />
      <stop
         style="stop-color:#616161;stop-opacity:1;"
         offset="1.00000000"
         id="stop614" />
      <a:midPointStop
         offset="0"
         style="stop-color:#B2B2B2"
         id="midPointStop615" />
      <a:midPointStop
         offset="0.5"
         style="stop-color:#B2B2B2"
         id="midPointStop616" />
      <a:midPointStop
         offset="1"
         style="stop-color:#616161"
         id="midPointStop617" />
    </linearGradient>
    <path
       d="M 52.899 41.747 C 52.229 40.696 51.499 39.687 50.709 38.726 L 42.265 34.352 L 32.332 35.549 C 32.332 35.549 36.662 38.787 38.021 43.933 C 40.868 43.105 44.126 44.192 47.99 48.721 L 52.101 44.586 L 52.899 41.747 z "
       style="fill:url(#XMLID_8_);stroke:none;"
       id="path618" />
    <linearGradient
       x1="18.3314991"
       y1="44.8886986"
       x2="63.0278015"
       y2="44.8886986"
       id="XMLID_9_"
       gradientUnits="userSpaceOnUse"
       gradientTransform="matrix(0.978500,-0.206400,0.206400,0.978500,-16.65350,15.00030)"
       spreadMethod="pad">
      <stop
         style="stop-color:#8a9396;stop-opacity:1;"
         offset="0.00000000"
         id="stop620" />
      <stop
         style="stop-color:#616161;stop-opacity:1;"
         offset="1.00000000"
         id="stop621" />
      <a:midPointStop
         offset="0"
         style="stop-color:#8A9396"
         id="midPointStop622" />
      <a:midPointStop
         offset="0.5"
         style="stop-color:#8A9396"
         id="midPointStop623" />
      <a:midPointStop
         offset="1"
         style="stop-color:#616161"
         id="midPointStop624" />
    </linearGradient>
    <path
       d="M 49.738 37.606 C 50.263 38.36 50.766 39.13 51.223 39.93 L 45.544 45.643 C 30.82 28.38 24.839 61.092 17.292 59.388 C 14.769 58.819 12.453 56.999 10.484 54.831 C 12.84 58.175 16.072 61.64 19.739 62.468 C 27.286 64.171 33.267 31.459 47.99 48.721 L 53.671 43.008 C 52.56 41.065 51.235 39.262 49.738 37.606 z "
       style="opacity:0.3;fill:url(#XMLID_9_);stroke:none;"
       id="path625" />
    <g
       style="opacity:0.3;"
       id="g626">
      <linearGradient
         x1="29.9155006"
         y1="37.8955002"
         x2="58.9324989"
         y2="37.8955002"
         id="XMLID_10_"
         gradientUnits="userSpaceOnUse"
         gradientTransform="matrix(0.978500,-0.206400,0.206400,0.978500,-16.65350,15.00030)"
         spreadMethod="pad">
        <stop
           style="stop-color:#b2b2b2;stop-opacity:1;"
           offset="0.00000000"
           id="stop628" />
        <stop
           style="stop-color:#616161;stop-opacity:1;"
           offset="1.00000000"
           id="stop629" />
        <a:midPointStop
           offset="0"
           style="stop-color:#B2B2B2"
           id="midPointStop630" />
        <a:midPointStop
           offset="0.5"
           style="stop-color:#B2B2B2"
           id="midPointStop631" />
        <a:midPointStop
           offset="1"
           style="stop-color:#616161"
           id="midPointStop632" />
      </linearGradient>
      <path
         d="M 34.443 28.156 C 34.646 28.215 34.849 28.271 35.049 28.332 C 34.85 28.271 34.646 28.215 34.443 28.156 M 32.626 27.682 C 32.842 27.733 33.056 27.785 33.271 27.838 C 33.057 27.785 32.842 27.732 32.626 27.682 M 30.804 27.307 C 30.999 27.342 31.189 27.382 31.381 27.42 C 31.189 27.382 30.999 27.341 30.804 27.307 M 6.497 47.93 C 6.487 47.909 6.479 47.891 6.479 47.891 C 6.479 47.891 6.485 47.904 6.497 47.93 M 50.419 38.371 C 50.42 38.373 50.422 38.375 50.425 38.378 C 51.158 39.365 51.833 40.397 52.447 41.47 L 46.767 47.182 C 32.042 29.919 26.063 62.632 18.514 60.929 C 15.724 60.3 13.185 58.142 11.093 55.673 C 10.917 55.438 10.745 55.201 10.576 54.966 C 12.925 58.268 16.118 61.651 19.737 62.468 C 27.284 64.171 33.265 31.459 47.988 48.721 L 53.669 43.008 C 52.729 41.362 51.64 39.813 50.419 38.371 M 41.539 31.1 C 41.747 31.216 41.957 31.332 42.164 31.453 C 41.957 31.332 41.749 31.216 41.539 31.1 M 43.638 32.365 C 43.466 32.252 43.288 32.146 43.112 32.035 C 43.289 32.146 43.466 32.251 43.638 32.365 M 36.414 28.787 C 36.529 28.827 36.645 28.863 36.758 28.904 C 36.645 28.862 36.528 28.827 36.414 28.787 M 38.378 29.547 C 38.564 29.627 38.744 29.712 38.927 29.793 C 38.744 29.712 38.564 29.626 38.378 29.547 M 39.976 30.281 C 40.189 30.385 40.4 30.493 40.61 30.601 C 40.4 30.493 40.189 30.385 39.976 30.281 M 9.607 53.537 C 8.399 51.675 7.496 49.97 6.978 48.932 C 7.494 49.969 8.397 51.672 9.607 53.537 M 46.911 34.845 C 46.715 34.676 46.518 34.506 46.317 34.341 C 46.518 34.506 46.714 34.676 46.911 34.845 M 45.515 33.71 C 45.335 33.572 45.16 33.43 44.976 33.297 C 45.159 33.431 45.335 33.573 45.515 33.71 M 48.183 35.997 C 47.993 35.815 47.799 35.637 47.604 35.458 C 47.799 35.637 47.993 35.815 48.183 35.997 M 10.56 54.94 C 10.398 54.71 10.239 54.481 10.084 54.253 C 10.238 54.48 10.396 54.71 10.56 54.94 M 49.376 37.2 C 49.205 37.018 49.028 36.844 48.854 36.666 C 49.028 36.844 49.206 37.019 49.376 37.2 M 6.558 48.065 C 6.537 48.018 6.522 47.985 6.509 47.957 C 6.521 47.984 6.539 48.02 6.558 48.065 M 6.79 48.551 C 6.746 48.458 6.704 48.374 6.669 48.299 C 6.704 48.374 6.744 48.458 6.79 48.551 M 10.067 54.229 C 9.911 53.996 9.757 53.767 9.609 53.537 C 9.757 53.767 9.911 53.996 10.067 54.229 M 6.655 48.271 C 6.621 48.196 6.59 48.132 6.566 48.079 C 6.589 48.132 6.621 48.196 6.655 48.271 M 6.97 48.919 C 6.912 48.799 6.857 48.69 6.808 48.589 C 6.857 48.69 6.912 48.8 6.97 48.919 z "
         style="fill:url(#XMLID_10_);stroke:none;"
         id="path633" />
    </g>
    <path
       d="M 52.355 15.45 L 64.308 9.635 L 91.162 10.56 L 94.565 13.14 C 94.915 13.165 95.264 13.188 95.616 13.215 L 90.98 9.699 L 64.128 8.774 L 52.174 14.59 L 51.332 21.957 L 51.565 22.356 L 52.355 15.45 z "
       style="opacity:0.2;stroke:none;"
       id="path634" />
    <path
       d="M 66.591 36.612 L 68.168 37.875 C 68.168 37.875 64.517 34.126 63.432 29.9 C 63.857 32.466 65.357 34.938 66.591 36.612 z "
       style="opacity:0.2;stroke:none;"
       id="path635" />
    <linearGradient
       x1="74.9022980"
       y1="86.3778992"
       x2="88.3115005"
       y2="78.5378036"
       id="XMLID_11_"
       gradientUnits="userSpaceOnUse"
       gradientTransform="matrix(0.978500,-0.206400,0.206400,0.978500,-16.65350,15.00030)"
       spreadMethod="pad">
      <stop
         style="stop-color:#c46701;stop-opacity:1;"
         offset="0.00000000"
         id="stop637" />
      <stop
         style="stop-color:#ff9200;stop-opacity:1;"
         offset="1.00000000"
         id="stop638" />
      <a:midPointStop
         offset="0"
         style="stop-color:#C46701"
         id="midPointStop639" />
      <a:midPointStop
         offset="0.5"
         style="stop-color:#C46701"
         id="midPointStop640" />
      <a:midPointStop
         offset="1"
         style="stop-color:#FF9200"
         id="midPointStop641" />
    </linearGradient>
    <path
       d="M 47.902 48.478 L 52.265 53.548 C 52.265 53.548 74.039 71.383 84.236 95.591 C 84.236 95.591 94.1 115.378 100.773 121.458 C 100.773 121.458 109.523 106.134 120.558 105.901 C 122.279 105.54 100.29 80.823 91.534 73.383 L 68.168 37.875 L 64.452 34.466 L 61.616 34.503 L 46.978 45.34 L 47.916 46.94 L 47.902 48.478 z "
       style="fill:url(#XMLID_11_);stroke:none;"
       id="path642" />
    <g
       style="opacity:0.3;"
       id="g643">
      <path
         d="M 47.552 45.219 L 47.427 45.007 L 46.977 45.34 L 47.542 46.305 L 47.552 45.219 M 100.411 119.738 C 93.736 113.654 83.873 93.87 83.873 93.87 C 73.676 69.662 51.903 51.827 51.903 51.827 L 47.912 47.19 L 47.902 48.477 L 52.265 53.547 C 52.265 53.547 74.039 71.382 84.236 95.59 C 84.236 95.59 94.1 115.377 100.773 121.457 C 100.773 121.457 109.523 106.133 120.558 105.9 C 120.818 105.847 120.529 105.228 119.832 104.204 C 108.971 104.759 100.411 119.738 100.411 119.738 z "
         style="fill:#8f5102;stroke:none;"
         id="path644" />
    </g>
    <path
       d="M 91.533 73.384 L 68.168 37.875 L 65.586 35.507 L 89.631 72.887 C 98.389 80.326 120.377 105.042 118.656 105.405 C 109.223 105.603 101.466 116.822 99.409 120.078 C 99.875 120.59 100.332 121.056 100.772 121.459 C 100.772 121.459 109.522 106.135 120.557 105.902 C 122.278 105.54 100.29 80.823 91.533 73.384 z "
       style="opacity:0.2;stroke:none;"
       id="path645" />
    <linearGradient
       x1="37.6924019"
       y1="35.5556984"
       x2="32.7104988"
       y2="24.4193001"
       id="XMLID_12_"
       gradientUnits="userSpaceOnUse"
       gradientTransform="matrix(0.978500,-0.206400,0.206400,0.978500,-16.65350,15.00030)"
       spreadMethod="pad">
      <stop
         style="stop-color:#cccccc;stop-opacity:1;"
         offset="0.00000000"
         id="stop647" />
      <stop
         style="stop-color:#616161;stop-opacity:1;"
         offset="1.00000000"
         id="stop648" />
      <a:midPointStop
         offset="0"
         style="stop-color:#CCCCCC"
         id="midPointStop649" />
      <a:midPointStop
         offset="0.5"
         style="stop-color:#CCCCCC"
         id="midPointStop650" />
      <a:midPointStop
         offset="1"
         style="stop-color:#616161"
         id="midPointStop651" />
    </linearGradient>
    <path
       d="M 13.823 42.448 C 17.716 43.124 22.499 39.121 22.499 39.121 C 27.426 33.676 28.951 30.521 29.292 28.749 C 38.846 29.821 46.918 34.246 52.242 40.766 C 47.123 33.369 38.847 28.263 28.956 27.023 C 28.645 28.788 27.206 31.925 22.521 37.319 C 22.521 37.319 17.964 41.275 14.22 40.568 L 6.479 47.892 C 6.479 47.892 6.624 48.214 6.893 48.762 L 13.823 42.448 z "
       style="fill:url(#XMLID_12_);stroke:none;"
       id="path652" />
    <linearGradient
       x1="20.5806007"
       y1="35.9169998"
       x2="31.4246998"
       y2="56.7260017"
       id="XMLID_13_"
       gradientUnits="userSpaceOnUse"
       gradientTransform="matrix(0.978500,-0.206400,0.206400,0.978500,-16.65350,15.00030)"
       spreadMethod="pad">
      <stop
         style="stop-color:#cecedb;stop-opacity:1;"
         offset="0.00000000"
         id="stop654" />
      <stop
         style="stop-color:#919697;stop-opacity:1;"
         offset="1.00000000"
         id="stop655" />
      <a:midPointStop
         offset="0"
         style="stop-color:#CECEDB"
         id="midPointStop656" />
      <a:midPointStop
         offset="0.5"
         style="stop-color:#CECEDB"
         id="midPointStop657" />
      <a:midPointStop
         offset="1"
         style="stop-color:#919697"
         id="midPointStop658" />
    </linearGradient>
    <path
       d="M 26.99 56.065 C 19.423 49.455 15.793 44.261 14.064 40.714 L 6.479 47.891 C 6.479 47.891 12.19 60.764 19.738 62.467 C 22.202 63.024 24.5 59.91 26.99 56.065 z "
       style="fill:url(#XMLID_13_);stroke:none;"
       id="path659" />
    <path
       d="M 14.064 40.715 L 12.975 41.746 C 14.947 45.195 18.543 49.85 25.088 55.568 C 22.777 59.137 20.631 62.072 18.362 62.028 C 18.814 62.213 19.273 62.361 19.738 62.467 C 22.202 63.023 24.5 59.909 26.989 56.065 C 19.423 49.456 15.793 44.261 14.064 40.715 z "
       style="opacity:0.5;fill:#616161;stroke:none;"
       id="path660" />
    <linearGradient
       x1="14.2798004"
       y1="32.6636009"
       x2="29.0811996"
       y2="47.4650002"
       id="XMLID_14_"
       gradientUnits="userSpaceOnUse"
       gradientTransform="matrix(0.978500,-0.206400,0.206400,0.978500,-16.65350,15.00030)"
       spreadMethod="pad">
      <stop
         style="stop-color:#ffffff;stop-opacity:1;"
         offset="0.00000000"
         id="stop662" />
      <stop
         style="stop-color:#cccccc;stop-opacity:1;"
         offset="1.00000000"
         id="stop663" />
      <a:midPointStop
         offset="0"
         style="stop-color:#FFFFFF"
         id="midPointStop664" />
      <a:midPointStop
         offset="0.5"
         style="stop-color:#FFFFFF"
         id="midPointStop665" />
      <a:midPointStop
         offset="1"
         style="stop-color:#CCCCCC"
         id="midPointStop666" />
    </linearGradient>
    <path
       d="M 7.579 47.607 C 9.512 51.495 14.119 58.953 19.083 60.073 C 20.312 60.351 22.325 57.647 23.663 55.659 C 18.675 51.158 14.991 46.864 12.621 42.837 C 10.936 44.432 8.667 46.577 7.579 47.607 z "
       style="fill:url(#XMLID_14_);stroke:none;"
       id="path667" />
    <path
       d="M 64.539 32.758 C 58.18 25.68 46.866 8.247 93.27 11.435 L 91.058 9.759 C 91.008 9.738 90.953 9.717 90.902 9.696 L 64.128 8.774 L 52.174 14.59 L 51.332 21.957 L 55.546 29.155 L 59.879 31.237 L 66.428 36.482 L 66.749 36.204 C 66.058 35.308 65.229 34.112 64.539 32.758 z "
       style="opacity:0.3;fill:#616161;stroke:none;"
       id="path668" />
    <path
       d="M 49.168 49.949 L 65.714 35.622 L 64.452 34.465 L 61.616 34.502 L 46.978 45.34 L 47.916 46.94 L 47.903 48.478 L 49.168 49.949 z "
       style="fill:#616161;stroke:none;"
       id="path669" />
    <path
       d="M 49.668 50.449 L 66.214 36.122 L 64.952 34.965 L 62.116 35.002 L 47.478 45.84 L 48.416 47.44 L 48.403 48.978 L 49.668 50.449 z "
       style="opacity:0.5;fill:#616161;stroke:none;"
       id="path670" />
    <linearGradient
       x1="107.286102"
       y1="26.5967007"
       x2="39.8955002"
       y2="26.5977001"
       id="XMLID_15_"
       gradientUnits="userSpaceOnUse"
       gradientTransform="matrix(0.978500,-0.206400,0.206400,0.978500,-16.65350,15.00030)"
       spreadMethod="pad">
      <stop
         style="stop-color:#cecedb;stop-opacity:1;"
         offset="0.00000000"
         id="stop672" />
      <stop
         style="stop-color:#919697;stop-opacity:1;"
         offset="1.00000000"
         id="stop673" />
      <a:midPointStop
         offset="0"
         style="stop-color:#CECEDB"
         id="midPointStop674" />
      <a:midPointStop
         offset="0.5"
         style="stop-color:#CECEDB"
         id="midPointStop675" />
      <a:midPointStop
         offset="1"
         style="stop-color:#919697"
         id="midPointStop676" />
    </linearGradient>
    <path
       d="M 47.138 47.772 C 47.419 48.071 47.702 48.383 47.99 48.721 L 64.452 34.466 C 64.452 34.466 31.732 5.722 92.022 10.379 C 92.022 10.379 58.309 -8.869 28.599 24.954 C 28.599 24.954 30.114 26.082 27.434 30.708 C 29.651 33.345 32.124 36.033 33.147 36.575 C 34.89 37.497 43.392 40.996 47.138 47.772 z "
       style="fill:url(#XMLID_15_);stroke:none;"
       id="path677" />
    <linearGradient
       x1="71.8076019"
       y1="-6.08540010"
       x2="67.4113007"
       y2="42.8577995"
       id="XMLID_16_"
       gradientUnits="userSpaceOnUse"
       gradientTransform="matrix(0.978500,-0.206400,0.206400,0.978500,-16.65350,15.00030)"
       spreadMethod="pad">
      <stop
         style="stop-color:#ffffff;stop-opacity:1;"
         offset="0.00000000"
         id="stop679" />
      <stop
         style="stop-color:#999999;stop-opacity:1;"
         offset="1.00000000"
         id="stop680" />
      <a:midPointStop
         offset="0"
         style="stop-color:#FFFFFF"
         id="midPointStop681" />
      <a:midPointStop
         offset="0.5"
         style="stop-color:#FFFFFF"
         id="midPointStop682" />
      <a:midPointStop
         offset="1"
         style="stop-color:#999999"
         id="midPointStop683" />
    </linearGradient>
    <path
       d="M 30.692 25.298 L 30.693 25.298 C 30.919 26.374 30.717 28.049 29.532 30.444 C 32.026 33.339 33.56 34.798 33.97 35.021 L 34.733 35.397 C 37.452 36.715 44.468 40.161 48.208 46.207 C 50.285 44.407 59.633 36.313 61.84 34.402 C 59.52 32.072 55.154 27.139 54.081 22.048 C 53.688 20.186 53.737 18.302 54.489 16.519 C 56.927 10.737 65.687 7.968 81.132 8.119 C 69.477 5.157 49.469 4.55 30.692 25.298 z "
       style="fill:url(#XMLID_16_);stroke:none;"
       id="path684" />
    <path
       d="M 120.558 105.901 C 122.127 105.571 103.989 84.999 94.139 75.733 C 99.77 82.836 110.849 97.554 114.349 107.573 C 116.298 106.586 118.381 105.949 120.558 105.901 z "
       style="opacity:0.3;fill:#ffffff;stroke:none;"
       id="path685" />
    <path
       d="M 78.978 84.869 C 78.978 84.869 78.953 84.954 78.918 85.072 C 80.878 88.407 82.69 91.924 84.235 95.591 C 84.235 95.591 94.099 115.378 100.772 121.458 C 100.772 121.458 101.306 120.526 102.27 119.122 C 91.759 109.25 79.127 85.571 78.978 84.869 z "
       style="opacity:0.2;fill:#993300;stroke:none;"
       id="path686" />
    <path
       d="M 102.229 83.874 C 107.75 90.389 115.429 100.045 118.042 106.217 C 118.864 106.033 119.704 105.921 120.558 105.902 C 121.752 105.651 111.525 93.669 102.229 83.874 z "
       style="opacity:0.5;fill:#ffffff;stroke:none;"
       id="path687" />
    <path
       d="M 65.818 38.446 C 65.818 38.446 87.135 69.219 88.79 74.936 C 88.79 74.936 98.677 81.639 102.278 86.695 C 107.704 94.311 113.165 105.292 113.165 105.292 L 109.384 106.537 C 109.384 106.537 106.73 91.821 89.017 76.012 L 87.591 75.639 C 87.591 75.639 68.219 41.31 65.094 39.273 L 65.818 38.446 z "
       style="opacity:0.3;fill:#ffffff;stroke:none;"
       id="path688" />
    <path
       d="M 65.818 38.446 C 65.818 38.446 86.455 70.261 88.111 75.978 C 88.111 75.978 97.998 82.682 101.599 87.736 C 107.025 95.353 112.485 106.333 112.485 106.333 L 108.705 107.579 C 108.705 107.579 106.051 92.863 88.338 77.055 L 86.912 76.68 C 86.912 76.68 66.18 40.167 65.094 39.273 L 65.818 38.446 z "
       style="opacity:0.3;fill:#ffffff;stroke:none;"
       id="path689" />
    <path
       d="M 101.633 115.586 C 101.633 115.586 84.113 95.019 79.945 86.611 C 78.81 84.324 78.299 83.621 78.153 83.798 C 80.406 87.507 82.492 91.452 84.235 95.59 C 84.235 95.59 85.205 97.535 86.741 100.392 C 92.052 108.423 99.176 118.601 101.497 119.207 C 101.735 119.27 101.945 119.309 102.128 119.331 C 102.404 118.925 102.719 118.474 103.073 117.988 C 102.68 116.911 101.633 115.586 101.633 115.586 z "
       style="opacity:0.2;fill:#993300;stroke:none;"
       id="path690" />
    <linearGradient
       x1="114.197304"
       y1="102.050797"
       x2="107.702301"
       y2="124.033997"
       id="XMLID_17_"
       gradientUnits="userSpaceOnUse"
       spreadMethod="pad">
      <stop
         style="stop-color:#ff6d00;stop-opacity:1;"
         offset="0.00000000"
         id="stop692" />
      <stop
         style="stop-color:#824f26;stop-opacity:1;"
         offset="1.00000000"
         id="stop693" />
      <a:midPointStop
         offset="0"
         style="stop-color:#FF6D00"
         id="midPointStop694" />
      <a:midPointStop
         offset="0.5"
         style="stop-color:#FF6D00"
         id="midPointStop695" />
      <a:midPointStop
         offset="1"
         style="stop-color:#824F26"
         id="midPointStop696" />
    </linearGradient>
    <path
       d="M 106.695 108.744 C 101.372 113.435 98.909 119.342 101.193 121.934 C 103.477 124.526 109.645 122.823 114.968 118.13 C 120.292 113.44 122.757 107.533 120.47 104.942 C 118.188 102.35 112.018 104.054 106.695 108.744 z "
       style="fill:url(#XMLID_17_);stroke:none;"
       id="path697" />
    <linearGradient
       x1="93.2147980"
       y1="26.7280006"
       x2="93.2147980"
       y2="20.0237007"
       id="XMLID_18_"
       gradientUnits="userSpaceOnUse"
       gradientTransform="matrix(0.978500,-0.206400,0.206400,0.978500,-16.65350,15.00030)"
       spreadMethod="pad">
      <stop
         style="stop-color:#ffffff;stop-opacity:1;"
         offset="0.00000000"
         id="stop699" />
      <stop
         style="stop-color:#b2b2b2;stop-opacity:1;"
         offset="1.00000000"
         id="stop700" />
      <a:midPointStop
         offset="0"
         style="stop-color:#FFFFFF"
         id="midPointStop701" />
      <a:midPointStop
         offset="0.5"
         style="stop-color:#FFFFFF"
         id="midPointStop702" />
      <a:midPointStop
         offset="1"
         style="stop-color:#B2B2B2"
         id="midPointStop703" />
    </linearGradient>
    <path
       d="M 94.622 17.02 C 94.622 17.02 75.526 15.956 67.347 19.777 C 61.372 22.569 62.38 24.367 63.45 25.582 C 65.035 20.72 72.949 16.707 97.001 18.698 L 94.622 17.02 z "
       style="fill:url(#XMLID_18_);stroke:none;"
       id="path704" />
    <path
       d="M 128 128 L 0 128 L 0 0 L 128 0 L 128 128 z "
       style="fill:none;stroke:none;"
       id="path705" />
    <linearGradient
       x1="96.5752029"
       y1="68.5058975"
       x2="64.6734009"
       y2="88.0947037"
       id="XMLID_19_"
       gradientUnits="userSpaceOnUse"
       spreadMethod="pad">
      <stop
         style="stop-color:#ffffff;stop-opacity:1;"
         offset="0.00000000"
         id="stop707" />
      <stop
         style="stop-color:#ff7f00;stop-opacity:1;"
         offset="1.00000000"
         id="stop708" />
      <a:midPointStop
         offset="0"
         style="stop-color:#FFFFFF"
         id="midPointStop709" />
      <a:midPointStop
         offset="0.5"
         style="stop-color:#FFFFFF"
         id="midPointStop710" />
      <a:midPointStop
         offset="1"
         style="stop-color:#FF7F00"
         id="midPointStop711" />
    </linearGradient>
    <path
       d="M 65.818 38.446 L 89.5 75 L 118 102.5 C 118 102.5 105 105.75 99.75 115.5 C 99.75 115.5 78 79.75 74.75 73.25 C 71.5 66.75 53.25 50.5 53.25 50.5 L 65.818 38.446 z "
       style="fill:url(#XMLID_19_);stroke:none;"
       id="path712" />
    <path
       d="M 128 11.477 L 126.379 9.852 L 122.59 6.063 L 121.297 6.718 L 108.869 13.01 L 109.017 12.942 C 104.513 14.777 104.339 20.963 104.496 23.671 L 62.286 65.88 L 68.182 71.779 L 110.382 29.58 C 112.941 29.717 119.277 29.578 121.123 25.046 L 121.055 25.195 L 128 11.477 z "
       style="opacity:0.2;stroke:none;"
       id="path713" />
    <path
       d="M 77.389 72.631 L 60.256 55.499 L 51.318 58.791 L 51.948 61.11 C 52.013 61.351 53.499 67.05 48.853 70.484 C 39.073 77.713 7.084 102.361 6.067 116.011 C 5.882 118.484 6.646 120.65 8.273 122.277 L 11.788 125.793 C 13.416 127.418 15.583 128.182 18.053 128 C 31.704 126.98 56.352 94.992 63.582 85.213 C 67.015 80.567 72.714 82.051 72.954 82.115 L 75.257 82.744 L 76.099 80.51 L 78.566 73.809 L 77.389 72.631 z "
       style="opacity:0.2;stroke:none;"
       id="path714" />
    <linearGradient
       x1="90.8993988"
       y1="34.4346008"
       x2="97.6498032"
       y2="41.1850014"
       id="XMLID_20_"
       gradientUnits="userSpaceOnUse"
       spreadMethod="pad">
      <stop
         style="stop-color:#494949;stop-opacity:1;"
         offset="0.00000000"
         id="stop716" />
      <stop
         style="stop-color:#000000;stop-opacity:1;"
         offset="1.00000000"
         id="stop717" />
      <a:midPointStop
         offset="0"
         style="stop-color:#494949"
         id="midPointStop718" />
      <a:midPointStop
         offset="0.5"
         style="stop-color:#494949"
         id="midPointStop719" />
      <a:midPointStop
         offset="1"
         style="stop-color:#000000"
         id="midPointStop720" />
    </linearGradient>
    <path
       d="M 127 10.477 L 125.379 8.852 L 121.59 5.063 L 120.297 5.718 L 107.869 12.01 L 108.017 11.942 C 103.513 13.777 103.339 19.963 103.496 22.671 L 61.286 64.88 L 67.182 70.779 L 109.382 28.58 C 111.941 28.717 118.277 28.578 120.123 24.046 L 120.055 24.195 L 127 10.477 z "
       style="fill:url(#XMLID_20_);stroke:none;"
       id="path721" />
    <linearGradient
       x1="92.5313034"
       y1="36.0663986"
       x2="96.1987000"
       y2="39.7332993"
       id="XMLID_21_"
       gradientUnits="userSpaceOnUse"
       spreadMethod="pad">
      <stop
         style="stop-color:#ffffff;stop-opacity:1;"
         offset="0.00000000"
         id="stop723" />
      <stop
         style="stop-color:#cacad8;stop-opacity:1;"
         offset="0.40400001"
         id="stop724" />
      <stop
         style="stop-color:#b1b1c5;stop-opacity:1;"
         offset="0.63480002"
         id="stop725" />
      <stop
         style="stop-color:#999ab3;stop-opacity:1;"
         offset="0.84939998"
         id="stop726" />
      <stop
         style="stop-color:#8d8faa;stop-opacity:1;"
         offset="1.00000000"
         id="stop727" />
      <a:midPointStop
         offset="0"
         style="stop-color:#FFFFFF"
         id="midPointStop728" />
      <a:midPointStop
         offset="0.4633"
         style="stop-color:#FFFFFF"
         id="midPointStop729" />
      <a:midPointStop
         offset="0.6348"
         style="stop-color:#B1B1C5"
         id="midPointStop730" />
      <a:midPointStop
         offset="0.4231"
         style="stop-color:#B1B1C5"
         id="midPointStop731" />
      <a:midPointStop
         offset="1"
         style="stop-color:#8D8FAA"
         id="midPointStop732" />
    </linearGradient>
    <path
       d="M 123.963 10.264 L 121.801 8.102 L 121.201 7.502 L 108.773 13.794 C 104.671 15.465 105.531 23.293 105.548 23.447 L 64.114 64.881 L 67.182 67.951 L 108.619 26.515 C 108.762 26.531 116.599 27.395 118.271 23.291 L 124.562 10.863 L 123.963 10.264 z "
       style="fill:url(#XMLID_21_);stroke:none;"
       id="path733" />
    <linearGradient
       x1="5.06689978"
       y1="90.7500000"
       x2="77.5644989"
       y2="90.7500000"
       id="XMLID_22_"
       gradientUnits="userSpaceOnUse"
       spreadMethod="pad">
      <stop
         style="stop-color:#7c0000;stop-opacity:1;"
         offset="0.00000000"
         id="stop735" />
      <stop
         style="stop-color:#663333;stop-opacity:1;"
         offset="1.00000000"
         id="stop736" />
      <a:midPointStop
         offset="0"
         style="stop-color:#7C0000"
         id="midPointStop737" />
      <a:midPointStop
         offset="0.5"
         style="stop-color:#7C0000"
         id="midPointStop738" />
      <a:midPointStop
         offset="1"
         style="stop-color:#663333"
         id="midPointStop739" />
    </linearGradient>
    <path
       d="M 76.389 71.631 L 59.256 54.499 L 50.318 57.791 L 50.948 60.11 C 51.013 60.351 52.499 66.05 47.853 69.484 C 38.073 76.713 6.084 101.361 5.067 115.011 C 4.882 117.484 5.646 119.65 7.273 121.277 L 10.788 124.793 C 12.416 126.418 14.583 127.182 17.053 127 C 30.704 125.98 55.352 93.992 62.582 84.213 C 66.015 79.567 71.714 81.051 71.954 81.115 L 74.257 81.744 L 75.099 79.51 L 77.566 72.809 L 76.389 71.631 z "
       style="fill:url(#XMLID_22_);stroke:none;"
       id="path740" />
    <linearGradient
       x1="7.71780014"
       y1="90.9326019"
       x2="74.5468979"
       y2="90.9326019"
       id="XMLID_23_"
       gradientUnits="userSpaceOnUse"
       spreadMethod="pad">
      <stop
         style="stop-color:#f8310e;stop-opacity:1;"
         offset="0.00000000"
         id="stop742" />
      <stop
         style="stop-color:#a50100;stop-opacity:1;"
         offset="1.00000000"
         id="stop743" />
      <a:midPointStop
         offset="0"
         style="stop-color:#F8310E"
         id="midPointStop744" />
      <a:midPointStop
         offset="0.5"
         style="stop-color:#F8310E"
         id="midPointStop745" />
      <a:midPointStop
         offset="1"
         style="stop-color:#A50100"
         id="midPointStop746" />
    </linearGradient>
    <path
       d="M 72.652 78.609 L 74.547 73.47 L 66.57 65.494 L 58.593 57.517 L 53.456 59.41 C 53.456 59.41 55.619 66.982 49.4 71.577 C 43.181 76.172 -0.89 109.431 9.113 119.434 L 10.195 120.516 L 11.547 121.868 L 12.628 122.95 C 22.632 132.954 55.89 88.882 60.487 82.663 C 65.082 76.445 72.652 78.609 72.652 78.609 z "
       style="fill:url(#XMLID_23_);stroke:none;"
       id="path747" />
    <linearGradient
       x1="31.9873009"
       y1="86.6083984"
       x2="43.5708008"
       y2="98.1913986"
       id="XMLID_24_"
       gradientUnits="userSpaceOnUse"
       gradientTransform="matrix(1.004100,-4.100000e-3,-4.100000e-3,1.004100,0.433800,-0.433900)"
       spreadMethod="pad">
      <stop
         style="stop-color:#ffffff;stop-opacity:1;"
         offset="0.00000000"
         id="stop749" />
      <stop
         style="stop-color:#ff0000;stop-opacity:1;"
         offset="1.00000000"
         id="stop750" />
      <a:midPointStop
         offset="0"
         style="stop-color:#FFFFFF"
         id="midPointStop751" />
      <a:midPointStop
         offset="0.5"
         style="stop-color:#FFFFFF"
         id="midPointStop752" />
      <a:midPointStop
         offset="1"
         style="stop-color:#FF0000"
         id="midPointStop753" />
    </linearGradient>
    <path
       d="M 64.151 65.914 C 64.151 65.914 59.065 60.826 57.353 59.115 C 56.68 59.365 56.519 59.425 55.764 59.704 C 56 62.492 55.704 67.145 51.924 70.925 C 51.438 71.411 50.895 71.88 50.289 72.329 C 40.358 79.688 29.957 88.364 22.11 96.21 C 14.716 103.606 9.59 110.263 9.266 114.394 C 9.168 115.636 9.583 116.222 9.955 116.595 L 13.47 120.109 C 13.842 120.48 14.428 120.896 15.67 120.8 C 19.8 120.472 26.459 115.347 33.853 107.954 C 41.701 100.106 50.375 89.704 57.733 79.772 C 58.182 79.168 58.653 78.626 59.139 78.139 C 62.919 74.358 67.572 74.063 70.359 74.299 C 70.64 73.543 70.699 73.381 70.949 72.709 C 69.238 71.002 64.151 65.914 64.151 65.914 z "
       style="fill:url(#XMLID_24_);stroke:none;"
       id="path754" />
    <linearGradient
       x1="106.818398"
       y1="25.2479992"
       x2="119.901703"
       y2="12.1646996"
       id="XMLID_25_"
       gradientUnits="userSpaceOnUse"
       spreadMethod="pad">
      <stop
         style="stop-color:#ffffff;stop-opacity:1;"
         offset="0.00000000"
         id="stop756" />
      <stop
         style="stop-color:#b1b1c5;stop-opacity:1;"
         offset="1.00000000"
         id="stop757" />
      <a:midPointStop
         offset="0"
         style="stop-color:#FFFFFF"
         id="midPointStop758" />
      <a:midPointStop
         offset="0.5"
         style="stop-color:#FFFFFF"
         id="midPointStop759" />
      <a:midPointStop
         offset="1"
         style="stop-color:#B1B1C5"
         id="midPointStop760" />
    </linearGradient>
    <path
       d="M 120.693 10.678 C 118.177 11.952 109.853 16.165 109.853 16.165 L 109.755 16.205 C 109.597 16.269 109.45 16.372 109.317 16.505 C 108.329 17.494 108.001 20.19 108.1 22.33 C 108.42 22.65 109.43 23.66 109.733 23.962 C 111.874 24.063 114.569 23.735 115.559 22.746 C 115.692 22.612 115.793 22.467 115.858 22.309 L 115.897 22.211 C 115.897 22.211 120.112 13.888 121.385 11.371 C 121.074 11.06 121.004 10.989 120.693 10.678 z "
       style="fill:url(#XMLID_25_);stroke:none;"
       id="path761" />
  </g>
</svg>
