<?xml version="1.0" encoding="UTF-8" standalone="no"?>
<!DOCTYPE svg PUBLIC "-//W3C//DTD SVG 20010904//EN"
"http://www.w3.org/TR/2001/REC-SVG-20010904/DTD/svg10.dtd">
<!-- Created with Sodipodi ("http://www.sodipodi.com/") -->
<svg
   width="48pt"
   height="48pt"
   viewBox="0 0 256 256"
   style="overflow:visible;enable-background:new 0 0 256 256"
   xml:space="preserve"
   xmlns="http://www.w3.org/2000/svg"
   xmlns:xml="http://www.w3.org/XML/1998/namespace"
   xmlns:a="http://ns.adobe.com/AdobeSVGViewerExtensions/3.0/"
   xmlns:sodipodi="http://sodipodi.sourceforge.net/DTD/sodipodi-0.dtd"
   xmlns:xlink="http://www.w3.org/1999/xlink"
   id="svg4037"
   sodipodi:version="0.32"
   sodipodi:docname="/home/david/Documenti/Progetti/add2cvs/gnome-mime-text-x-credits.svgz"
   sodipodi:docbase="/home/david/Documenti/Progetti/add2cvs/">
  <defs
     id="defs4089" />
  <sodipodi:namedview
     id="base" />
  <g
     id="Layer_1"
     style="stroke:#000000;">
    <g
       id="g4039">
      <path
         style="opacity:0.2;stroke:none;"
         d="M44,15.5c-9.374,0-17,7.626-17,17v200c0,9.374,7.626,17,17,17h176c9.375,0,17-7.626,17-17v-200     c0-9.374-7.625-17-17-17H44z"
         id="path4040" />
      <path
         style="opacity:0.2;stroke:none;"
         d="M42,13.5c-9.374,0-17,7.626-17,17v200c0,9.374,7.626,17,17,17h176c9.375,0,17-7.626,17-17v-200     c0-9.374-7.625-17-17-17H42z"
         id="path4041" />
      <path
         style="opacity:0.2;stroke:none;"
         d="M40,12.5c-9.374,0-17,7.626-17,17v200c0,9.374,7.626,17,17,17h176c9.375,0,17-7.626,17-17v-200     c0-9.374-7.625-17-17-17H40z"
         id="path4042" />
      <linearGradient
         id="XMLID_1_"
         gradientUnits="userSpaceOnUse"
         x1="128.9995"
         y1="11"
         x2="128.9995"
         y2="245.0005">
        <stop
           offset="0"
           style="stop-color:#494949"
           id="stop4044" />
        <stop
           offset="1"
           style="stop-color:#000000"
           id="stop4045" />
        <a:midPointStop
           offset="0"
           style="stop-color:#494949"
           id="midPointStop4046" />
        <a:midPointStop
           offset="0.5"
           style="stop-color:#494949"
           id="midPointStop4047" />
        <a:midPointStop
           offset="1"
           style="stop-color:#000000"
           id="midPointStop4048" />
      </linearGradient>
      <path
         style="fill:url(#XMLID_1_);stroke:none;"
         d="M41,11c-9.374,0-17,7.626-17,17v200c0,9.374,7.626,17,17,17h176c9.375,0,17-7.626,17-17V28     c0-9.374-7.625-17-17-17H41z"
         id="path4049" />
      <path
         style="fill:#FFFFFF;stroke:none;"
         d="M28,228c0,6.627,5.373,12,12,12h176c6.627,0,12-5.373,12-12V28c0-6.627-5.373-12-12-12H40     c-6.627,0-12,5.373-12,12V228z"
         id="path4050" />
      <linearGradient
         id="XMLID_2_"
         gradientUnits="userSpaceOnUse"
         x1="29.0532"
         y1="29.0532"
         x2="226.9471"
         y2="226.9471">
        <stop
           offset="0"
           style="stop-color:#FFFFFF"
           id="stop4052" />
        <stop
           offset="1"
           style="stop-color:#DADADA"
           id="stop4053" />
        <a:midPointStop
           offset="0"
           style="stop-color:#FFFFFF"
           id="midPointStop4054" />
        <a:midPointStop
           offset="0.5"
           style="stop-color:#FFFFFF"
           id="midPointStop4055" />
        <a:midPointStop
           offset="1"
           style="stop-color:#DADADA"
           id="midPointStop4056" />
      </linearGradient>
      <path
         style="fill:url(#XMLID_2_);stroke:none;"
         d="M40,21c-3.86,0-7,3.14-7,7v200c0,3.859,3.14,7,7,7h176c3.859,0,7-3.141,7-7V28c0-3.86-3.141-7-7-7H40z"
         id="path4057" />
      <path
         style="fill:none;stroke:none;"
         d="M256,256H0V0h256V256z"
         id="path4058" />
    </g>
    <path
       style="opacity:0.2;stroke:none;"
       d="M61,132c0,38.047,30.953,69,69,69s69-30.953,69-69s-30.953-69-69-69S61,93.953,61,132z"
       id="path4059" />
    <path
       style="opacity:0.2;stroke:none;"
       d="M60,130c0,38.047,30.953,69,69,69s69-30.953,69-69s-30.953-69-69-69S60,91.953,60,130z"
       id="path4060" />
    <linearGradient
       id="XMLID_3_"
       gradientUnits="userSpaceOnUse"
       x1="127.9995"
       y1="59"
       x2="127.9995"
       y2="197.0005">
      <stop
         offset="0"
         style="stop-color:#0053BD"
         id="stop4062" />
      <stop
         offset="1"
         style="stop-color:#00008D"
         id="stop4063" />
      <a:midPointStop
         offset="0"
         style="stop-color:#0053BD"
         id="midPointStop4064" />
      <a:midPointStop
         offset="0.5"
         style="stop-color:#0053BD"
         id="midPointStop4065" />
      <a:midPointStop
         offset="1"
         style="stop-color:#00008D"
         id="midPointStop4066" />
    </linearGradient>
    <path
       style="fill:url(#XMLID_3_);stroke:none;"
       d="M59,128c0,38.047,30.953,69,69,69s69-30.953,69-69s-30.953-69-69-69S59,89.953,59,128z"
       id="path4067" />
    <radialGradient
       id="XMLID_4_"
       cx="94.0034"
       cy="100.0049"
       r="106.0592"
       fx="94.0034"
       fy="100.0049"
       gradientUnits="userSpaceOnUse">
      <stop
         offset="0"
         style="stop-color:#006DFF"
         id="stop4069" />
      <stop
         offset="0.764"
         style="stop-color:#004EED"
         id="stop4070" />
      <stop
         offset="1"
         style="stop-color:#0032CD"
         id="stop4071" />
      <a:midPointStop
         offset="0"
         style="stop-color:#006DFF"
         id="midPointStop4072" />
      <a:midPointStop
         offset="0.5"
         style="stop-color:#006DFF"
         id="midPointStop4073" />
      <a:midPointStop
         offset="0.764"
         style="stop-color:#004EED"
         id="midPointStop4074" />
      <a:midPointStop
         offset="0.5"
         style="stop-color:#004EED"
         id="midPointStop4075" />
      <a:midPointStop
         offset="1"
         style="stop-color:#0032CD"
         id="midPointStop4076" />
    </radialGradient>
    <path
       style="fill:url(#XMLID_4_);stroke:none;"
       d="M64,127c0,35.346,28.653,64,64,64s64-28.654,64-64s-28.653-64-64-64S64,91.654,64,127z"
       id="path4077" />
    <path
       style="opacity:0.36;fill:#FFFFFF;stroke:none;"
       d="M71,133.25c0-37.531,26.813-68.185,60.562-70.146C130.382,63.039,129.195,63,128,63    c-35.347,0-64,28.654-64,64c0,16.326,6.122,31.216,16.185,42.522C74.356,158.934,71,146.523,71,133.25z"
       id="path4078" />
    <linearGradient
       id="XMLID_5_"
       gradientUnits="userSpaceOnUse"
       x1="128.0562"
       y1="81.8604"
       x2="128.0562"
       y2="138.8612">
      <stop
         offset="0"
         style="stop-color:#FFFFFF"
         id="stop4080" />
      <stop
         offset="1"
         style="stop-color:#006DFF"
         id="stop4081" />
      <a:midPointStop
         offset="0"
         style="stop-color:#FFFFFF"
         id="midPointStop4082" />
      <a:midPointStop
         offset="0.5"
         style="stop-color:#FFFFFF"
         id="midPointStop4083" />
      <a:midPointStop
         offset="1"
         style="stop-color:#006DFF"
         id="midPointStop4084" />
    </linearGradient>
    <path
       style="opacity:0.5;fill:url(#XMLID_5_);stroke:none;"
       d="M128.982,123.859c21.671,0,41.616-3.148,57.454-8.429C181.379,85.61,157.151,63,128.004,63    c-28.941,0-53.038,22.291-58.328,51.798C85.798,120.459,106.458,123.859,128.982,123.859z"
       id="path4085" />
    <g
       id="g4086">
      <path
         style="fill:#FFFFFF;stroke:none;"
         d="M146.625,170.813h-35.75v-4.125c0.969-0.074,1.918-0.17,2.852-0.283c0.932-0.113,1.732-0.301,2.404-0.566     c1.193-0.453,2.033-1.104,2.518-1.953s0.727-1.973,0.727-3.371v-32.965c0-1.32-0.303-2.482-0.904-3.482     c-0.604-1-1.357-1.803-2.26-2.408c-0.68-0.453-1.705-0.887-3.08-1.303c-1.375-0.414-2.627-0.68-3.756-0.793v-4.125l27.896-1.5     l0.854,0.85v44.988c0,1.322,0.279,2.445,0.838,3.371s1.361,1.615,2.406,2.068c0.744,0.34,1.564,0.643,2.459,0.906     c0.895,0.266,1.828,0.453,2.797,0.566V170.813z M138.5,93.59c0,2.867-1.105,5.309-3.314,7.324s-4.824,3.023-7.844,3.023     c-3.061,0-5.695-1.008-7.904-3.023s-3.313-4.457-3.313-7.324c0-2.863,1.104-5.314,3.313-7.35s4.844-3.053,7.904-3.053     c3.059,0,5.682,1.018,7.873,3.053C137.404,88.275,138.5,90.727,138.5,93.59z"
         id="path4087" />
    </g>
  </g>
</svg>
